<?xml version="1.0" encoding="utf-8"?>
<svg id="master-artboard" viewBox="0 0 999.5595092773438 1000.0925903320312" version="1.1" xmlns="http://www.w3.org/2000/svg" x="0px" y="0px" width="999.5595092773438px" height="1000.0925903320312px" enable-background="new 0 0 2340 1560"><rect id="ee-background" x="0" y="0" width="999.5595092773438" height="1000.0925903320312" style="fill: white; fill-opacity: 0; pointer-events: none;"/>
<metadata><!--?xpacket begin="﻿" id="W5M0MpCehiHzreSzNTczkc9d"?-->

                                                                                                    
                                                                                                    
                                                                                                    
                                                                                                    
                                                                                                    
                                                                                                    
                                                                                                    
                                                                                                    
                                                                                                    
                                                                                                    
                                                                                                    
                                                                                                    
                                                                                                    
                                                                                                    
                                                                                                    
                                                                                                    
                                                                                                    
                                                                                                    
                                                                                                    
                                                                                                    
                           
<!--?xpacket end="w"?-->
	</metadata>


<linearGradient id="SVGID_1_" gradientUnits="userSpaceOnUse" x1="1170" y1="845.8359" x2="1170" y2="560.4071" gradientTransform="matrix(0.999953919836571, -0.009525408186344796, 0.012991309179644028, 1.3637465569457452, -7.226584009891807, -192.70139777614216)">
	<stop offset="0" style="stop-color:#00B6ED"/>
	<stop offset="1" style="stop-color:#2273B9"/>
</linearGradient>
<path fill="url(#SVGID_1_)" d="M1331.688,604.206l-157.47-90.916c-2.61-1.507-5.826-1.508-8.437,0l-157.47,90.916&#10;&#9;c-2.609,1.506-4.217,4.291-4.217,7.305v181.831c0,3.014,1.608,5.798,4.217,7.306l157.47,90.915c1.305,0.754,2.761,1.13,4.218,1.13&#10;&#9;c1.457,0,2.913-0.376,4.219-1.13l157.47-90.915c2.609-1.508,4.217-4.292,4.217-7.306V611.511&#10;&#9;C1335.905,608.497,1334.298,605.712,1331.688,604.206z M1170,874.515l-88.639-51.175h105.345&#10;&#9;c3.513,10.185,13.17,17.532,24.532,17.532c14.319,0,25.968-11.648,25.968-25.968c0-14.317-11.648-25.967-25.968-25.967&#10;&#9;c-11.362,0-21.02,7.347-24.532,17.53h-134.568l-31.172-17.997v-55.114h197.475c3.512,10.185,13.169,17.532,24.532,17.532&#10;&#9;c14.319,0,25.967-11.649,25.967-25.968c0-14.317-11.647-25.967-25.967-25.967c-11.363,0-21.02,7.347-24.532,17.531h-197.475v-73.11&#10;&#9;h156.243c3.514,10.184,13.171,17.53,24.532,17.53c14.319,0,25.968-11.648,25.968-25.966s-11.648-25.968-25.968-25.968&#10;&#9;c-11.361,0-21.019,7.348-24.532,17.532h-156.243v-10.122L1170,530.337l88.639,51.175h-94.522&#10;&#9;c-3.513-10.185-13.17-17.532-24.531-17.532c-14.319,0-25.969,11.649-25.969,25.968s11.649,25.966,25.969,25.966&#10;&#9;c11.361,0,21.019-7.347,24.531-17.53h123.746l31.171,17.997v55.113h-210.205c-3.513-10.184-13.17-17.531-24.533-17.531&#10;&#9;c-14.319,0-25.967,11.648-25.967,25.966c0,14.319,11.648,25.968,25.967,25.968c11.362,0,21.02-7.347,24.533-17.532h210.205v73.111&#10;&#9;h-146.734c-3.513-10.185-13.171-17.532-24.534-17.532c-14.318,0-25.967,11.649-25.967,25.968c0,14.318,11.649,25.967,25.967,25.967&#10;&#9;c11.362,0,21.021-7.348,24.534-17.531h146.734v10.122L1170,874.515z M1202.143,814.904c0-5.016,4.081-9.096,9.096-9.096&#10;&#9;c5.016,0,9.096,4.08,9.096,9.096s-4.08,9.096-9.096,9.096C1206.224,824,1202.143,819.92,1202.143,814.904z M1233.878,724.921&#10;&#9;c0-5.015,4.08-9.095,9.095-9.095c5.016,0,9.096,4.08,9.096,9.095c0,5.016-4.08,9.096-9.096,9.096&#10;&#9;C1237.958,734.017,1233.878,729.937,1233.878,724.921z M1192.646,634.939c0-5.016,4.081-9.096,9.095-9.096&#10;&#9;c5.016,0,9.096,4.081,9.096,9.096c0,5.015-4.08,9.095-9.096,9.095C1196.727,644.034,1192.646,639.954,1192.646,634.939z&#10;&#9; M1148.68,589.948c0,5.015-4.08,9.095-9.095,9.095c-5.017,0-9.097-4.081-9.097-9.095c0-5.016,4.08-9.096,9.097-9.096&#10;&#9;C1144.6,580.852,1148.68,584.932,1148.68,589.948z M1093.391,679.93c0,5.017-4.081,9.096-9.096,9.096&#10;&#9;c-5.015,0-9.095-4.08-9.095-9.096c0-5.014,4.08-9.095,9.095-9.095C1089.31,670.835,1093.391,674.916,1093.391,679.93z&#10;&#9; M1156.861,769.913c0,5.015-4.08,9.095-9.096,9.095c-5.014,0-9.095-4.081-9.095-9.095c0-5.016,4.081-9.096,9.095-9.096&#10;&#9;C1152.781,760.817,1156.861,764.897,1156.861,769.913z" style="stroke: rgb(0, 0, 0); stroke-width: 0; fill-opacity: 1;" transform="matrix(2.59317684173584, 0, 0, 2.59317684173584, -2532.40625, -1321.393798828125)"/>
</svg>